<?xml version="1.0" encoding="iso-8859-1"?>
<!-- Uploaded to: SVG Repo, www.svgrepo.com, Generator: SVG Repo Mixer Tools -->
<svg version="1.1" id="Layer_1" xmlns="http://www.w3.org/2000/svg" xmlns:xlink="http://www.w3.org/1999/xlink" 
	 viewBox="0 0 512 512" xml:space="preserve">
<g>
	<g>
		<path d="M508.961,415.951L383.956,290.947c-3.983-3.983-10.442-3.983-14.424,0l-47.165,47.164
			c-23.984-20.605-49.785-44.694-76.809-71.719c-27.016-27.017-51.099-52.822-71.701-76.828l47.146-47.146
			c3.983-3.984,3.983-10.442,0-14.425L95.998,2.987C94.086,1.075,91.492,0,88.786,0s-5.3,1.075-7.213,2.987L5.12,79.442
			c-0.597,0.597-1.117,1.266-1.549,1.99c-1.816,3.048-9.999,20.324,7.322,61.237c21.991,51.945,74.687,119.829,156.622,201.765
			c82.248,82.247,150.229,135.038,202.055,156.906C389.256,509.646,403.438,512,413.194,512c10.519-0.001,15.893-2.739,17.463-3.706
			c0.671-0.415,1.293-0.907,1.851-1.465l76.453-76.453C512.944,426.393,512.944,419.934,508.961,415.951z M419.575,490.911
			c-7.862,2.007-67.503,9.231-237.635-160.902C12.666,160.735,19.129,100.469,21.097,92.313l67.689-67.689l110.58,110.58
			l-46.585,46.585c-3.744,3.744-4,9.73-0.591,13.782c22.259,26.442,48.82,55.122,78.942,85.244
			c30.131,30.131,58.802,56.697,85.218,78.961c4.049,3.413,10.039,3.159,13.786-0.588l46.607-46.607l110.581,110.581
			L419.575,490.911z"/>
	</g>
</g>
<g>
	<g>
		<path d="M481.913,89.663h-59.574V30.089c0-5.633-4.566-10.2-10.2-10.2h-74.642c-5.633,0-10.2,4.566-10.2,10.2v59.574h-59.574
			c-5.633,0-10.199,4.566-10.199,10.2v74.642c0,5.633,4.566,10.2,10.199,10.2h59.574v59.574c0,5.633,4.566,10.199,10.2,10.199
			h74.642c5.633,0,10.2-4.566,10.2-10.199v-59.574h59.574c5.633,0,10.2-4.566,10.2-10.2V99.862
			C492.113,94.229,487.546,89.663,481.913,89.663z M471.713,164.305h-59.574c-5.633,0-10.2,4.566-10.2,10.199v59.574h-54.243
			v-59.574c0-5.633-4.566-10.199-10.199-10.199h-59.574v-54.243h59.574c5.633,0,10.199-4.566,10.199-10.2V40.288h54.243v59.574
			c0,5.633,4.566,10.2,10.2,10.2h59.574V164.305z"/>
	</g>
</g>
<g>
	<g>
		<path d="M156.112,109.061l-5.099-5.099c-3.984-3.983-10.442-3.983-14.425,0c-3.983,3.984-3.983,10.442,0,14.425l5.099,5.099
			c1.991,1.992,4.602,2.987,7.212,2.987c2.61,0,5.22-0.995,7.213-2.987C160.095,119.503,160.095,113.044,156.112,109.061z"/>
	</g>
</g>
<g>
	<g>
		<path d="M127.553,80.503L95.935,48.884c-3.984-3.983-10.442-3.984-14.425,0c-3.983,3.984-3.983,10.442,0,14.425l31.618,31.618
			c1.991,1.992,4.602,2.987,7.212,2.987s5.22-0.995,7.213-2.987C131.536,90.944,131.536,84.486,127.553,80.503z"/>
	</g>
</g>
</svg>